<?xml version="1.0" standalone="no"?>
<!DOCTYPE svg PUBLIC "-//W3C//DTD SVG 20010904//EN"
 "http://www.w3.org/TR/2001/REC-SVG-20010904/DTD/svg10.dtd">
<svg version="1.0" xmlns="http://www.w3.org/2000/svg"
 width="128.000000pt" height="128.000000pt" viewBox="0 0 128.000000 128.000000"
 preserveAspectRatio="xMidYMid meet">
<g transform="translate(0.000000,128.000000) scale(0.100000,-0.100000)"
fill="#000000" stroke="none">
<path d="M115 1261 c-49 -22 -79 -54 -100 -105 -19 -46 -13 -58 10 -22 15 22
20 24 34 14 14 -11 14 -11 4 3 -10 12 -10 18 0 29 10 10 9 11 -3 5 -8 -5 -4 4
9 18 23 25 26 26 43 11 16 -15 18 -15 24 0 3 9 11 13 17 9 6 -4 7 -1 2 7 -6
10 -11 10 -20 -3 -7 -9 -15 -14 -18 -10 -13 12 -7 21 17 27 13 3 26 13 30 21
7 19 0 19 -49 -4z"/>
<path d="M1105 1270 c-6 -10 -5 -11 18 -14 6 -1 11 -7 10 -13 -1 -6 6 -9 17
-6 12 3 20 0 20 -6 0 -7 5 -9 12 -5 8 5 9 2 5 -9 -3 -9 -3 -16 1 -15 4 0 18
-4 32 -10 14 -6 20 -11 13 -11 -6 -1 -10 -8 -9 -16 2 -16 26 -44 26 -31 0 5 7
3 15 -4 8 -7 15 -10 15 -6 0 15 -32 82 -48 99 -32 35 -115 66 -127 47z m145
-120 c0 -5 -2 -10 -4 -10 -3 0 -8 5 -11 10 -3 6 -1 10 4 10 6 0 11 -4 11 -10z"/>
<path d="M29 1253 c-13 -16 -12 -17 4 -4 9 7 17 15 17 17 0 8 -8 3 -21 -13z"/>
<path d="M1126 1208 c3 -5 10 -6 15 -3 13 9 11 12 -6 12 -8 0 -12 -4 -9 -9z"/>
<path d="M403 1012 c-18 -2 -33 -7 -33 -11 0 -4 14 -5 31 -3 74 11 161 -50
174 -122 20 -104 -84 -198 -185 -167 -62 18 -110 84 -110 149 0 39 -6 23 -14
-33 -4 -34 -3 -45 4 -35 9 13 10 13 10 0 0 -18 48 -73 78 -89 11 -6 45 -11 74
-11 33 0 48 -4 40 -9 -10 -6 -8 -10 8 -14 13 -3 19 -10 15 -17 -3 -6 -3 -9 2
-8 16 5 145 -130 137 -143 -4 -8 -3 -9 4 -5 13 8 79 -62 74 -78 -2 -6 0 -8 4
-3 11 11 63 -43 57 -59 -4 -10 0 -12 11 -8 9 4 16 3 14 -2 -2 -5 2 -10 7 -12
22 -7 55 -47 50 -60 -4 -12 -2 -12 8 -4 8 7 16 10 18 8 2 -2 22 -6 44 -9 27
-4 35 -3 25 3 -13 9 -13 10 1 10 8 0 26 11 39 25 12 13 28 22 34 18 6 -3 5 0
-1 8 -7 7 -13 22 -13 34 0 17 2 18 11 5 8 -12 9 -11 6 5 -2 11 -9 19 -15 18
-7 -2 -12 3 -12 10 0 8 -9 22 -20 32 -10 9 -18 22 -17 28 1 6 -2 11 -8 12 -21
1 -34 16 -29 33 5 13 4 14 -4 3 -11 -15 -27 2 -17 19 3 5 0 7 -8 4 -8 -3 -18
0 -23 7 -4 7 -3 10 4 5 6 -3 14 -1 18 5 4 8 3 9 -5 5 -6 -4 -14 0 -17 9 -4 9
-9 12 -13 7 -8 -13 -62 33 -59 50 2 7 -2 12 -9 11 -18 -4 -76 55 -67 68 4 8 3
9 -5 5 -13 -8 -86 59 -86 79 0 5 -6 11 -12 11 -7 1 -18 2 -24 3 -6 0 -8 8 -5
16 8 22 -13 112 -30 130 -9 8 -12 21 -8 27 4 7 4 10 -1 6 -4 -4 -14 -3 -21 3
-21 17 -96 35 -131 31z m391 -416 c187 -181 196 -191 196 -227 0 -49 -30 -79
-80 -79 -34 0 -48 12 -226 196 -104 108 -190 201 -192 205 -2 5 3 9 11 9 16 0
77 64 77 81 0 6 4 9 9 7 4 -1 97 -88 205 -192z"/>
<path d="M784 469 c-3 -6 -2 -15 3 -20 5 -5 9 -1 9 11 0 23 -2 24 -12 9z"/>
<path d="M891 386 c-19 -23 -4 -56 25 -56 28 0 42 25 27 49 -14 22 -37 25 -52
7z m43 -27 c-7 -11 -34 -12 -34 -1 0 14 11 21 26 15 8 -3 11 -9 8 -14z"/>
<path d="M394 957 c14 -13 22 -28 18 -32 -4 -5 -2 -5 4 -2 18 10 33 -15 31
-52 -2 -29 -7 -36 -29 -42 -16 -4 -28 -3 -28 2 0 5 -3 8 -7 8 -20 -3 -26 2
-13 12 13 8 13 9 -1 7 -9 -2 -29 10 -43 25 -15 16 -26 22 -26 15 0 -8 20 -33
44 -57 43 -42 45 -43 80 -31 28 9 37 19 45 48 11 38 3 53 -54 104 -30 26 -50
22 -21 -5z"/>
<path d="M456 948 c3 -5 10 -6 15 -3 13 9 11 12 -6 12 -8 0 -12 -4 -9 -9z"/>
<path d="M275 900 c-3 -5 -1 -10 4 -10 6 0 11 5 11 10 0 6 -2 10 -4 10 -3 0
-8 -4 -11 -10z"/>
<path d="M560 561 c0 -6 4 -13 10 -16 6 -3 7 1 4 9 -7 18 -14 21 -14 7z"/>
<path d="M1025 469 c-4 -6 -5 -12 -2 -15 2 -3 7 2 10 11 7 17 1 20 -8 4z"/>
<path d="M6 143 c15 -66 74 -127 131 -137 25 -5 26 -4 11 8 -10 7 -15 16 -11
20 4 4 0 4 -9 1 -9 -4 -19 -1 -24 6 -5 8 -3 10 6 4 9 -5 11 -4 6 3 -4 7 -13
12 -19 12 -16 0 -62 53 -61 68 3 25 5 27 15 12 7 -10 9 -11 7 -2 -2 8 -8 14
-13 14 -6 0 -18 4 -28 10 -15 8 -17 6 -11 -19z"/>
<path d="M1270 159 c0 -5 -5 -7 -12 -3 -7 4 -8 3 -4 -4 4 -7 2 -12 -4 -12 -6
0 -9 -4 -6 -8 7 -13 -38 -65 -60 -68 -10 -2 -22 2 -27 9 -6 8 -7 7 -4 -3 2 -8
12 -14 21 -14 9 1 16 0 16 -2 0 -6 -53 -28 -62 -26 -3 1 -9 -5 -12 -13 -16
-42 96 12 127 62 24 36 43 93 32 93 -3 0 -5 -5 -5 -11z"/>
<path d="M1209 138 c-3 -11 -5 -48 -3 -48 11 0 23 40 14 45 -5 3 -10 5 -11 3z"/>
<path d="M1127 57 c-3 -8 1 -14 8 -14 7 0 11 6 8 14 -3 7 -6 13 -8 13 -2 0 -5
-6 -8 -13z"/>
<path d="M438 13 c111 -2 293 -2 405 0 111 1 20 2 -203 2 -223 0 -314 -1 -202
-2z"/>
</g>
</svg>
